# xmcd
#
# Track frame offsets:
#	150
#	24529
#	37442
#	79706
#	126727
#	200235
#	227367
#
# Disc length: 3067 seconds
# Revision: 0
# Processed by: cddbd v1.5.2PL0 Copyright (c) Steve Scherf et al.
# Submitted via: dBpowerAMP V12.0
#
DISCID=630bf907
DTITLE=Hale Dwoskin - The Sedona Method Course CD 01
DYEAR=2007
DGENRE=Speech
TTITLE0=Welcome
TTITLE1=Overview
TTITLE2=Lester Levenson Story
TTITLE3=What is The Sedona Method
TTITLE4=The Four Ways of Letting Go
TTITLE5=The Basic Releasing Process
TTITLE6=Conclusion
EXTD=
EXTT0=
EXTT1=
EXTT2=
EXTT3=
EXTT4=
EXTT5=
EXTT6=
PLAYORDER=
